<svg width="128" height="128" viewBox="0 0 128 128" fill="none" xmlns="http://www.w3.org/2000/svg">
  <!-- Background circle -->
  <circle cx="64" cy="64" r="60" fill="#6366f1" opacity="0.1"/>
  
  <!-- Heart/Hands shape -->
  <g>
    <!-- Left hand -->
    <path d="M35 70C30 65, 25 60, 25 55C25 45, 32 40, 38 40C42 40, 45 42, 48 45" 
          fill="none" stroke="#6366f1" stroke-width="3" stroke-linecap="round" stroke-linejoin="round"/>
    
    <!-- Right hand -->
    <path d="M93 70C98 65, 103 60, 103 55C103 45, 96 40, 90 40C86 40, 83 42, 80 45" 
          fill="none" stroke="#6366f1" stroke-width="3" stroke-linecap="round" stroke-linejoin="round"/>
    
    <!-- Heart in center -->
    <path d="M64 50C64 50, 52 60, 52 68C52 75, 58 80, 64 80C70 80, 76 75, 76 68C76 60, 64 50, 64 50Z" 
          fill="#6366f1"/>
    
    <!-- Volunteer text indicator -->
    <circle cx="64" cy="100" r="18" fill="none" stroke="#8b5cf6" stroke-width="2"/>
    <path d="M60 95C60 93, 62 92, 64 92C66 92, 68 93, 68 95M60 100H68" 
          fill="none" stroke="#8b5cf6" stroke-width="2" stroke-linecap="round"/>
  </g>
</svg>
